<svg width="126" height="115" viewBox="0 0 126 115" fill="none" xmlns="http://www.w3.org/2000/svg">
<ellipse cx="51.5" cy="50" rx="51.5" ry="50" fill="#9999B0"/>
<g filter="url(#filter0_d_191_2849)">
<ellipse cx="72" cy="56.5" rx="50" ry="50.5" fill="#E9E9EE"/>
</g>
<g filter="url(#filter1_d_191_2849)">
<circle cx="61" cy="54" r="50" fill="#E9E9EE"/>
</g>
<g filter="url(#filter2_d_191_2849)">
<path d="M77.1084 42.5396H72.8237C72.7993 42.271 72.7749 42.0146 72.7505 41.7705C72.7505 41.5264 72.7505 41.2822 72.7505 41.0381C72.7017 39.7686 72.3965 38.6211 71.835 37.5957C71.2734 36.5703 70.48 35.7036 69.4546 34.9956C68.4536 34.2876 67.2573 33.7383 65.8657 33.3477C64.4741 32.957 62.9238 32.7617 61.2148 32.7617C59.6768 32.7617 58.2852 32.957 57.04 33.3477C55.8193 33.7139 54.7817 34.2388 53.9272 34.9224C53.0728 35.606 52.4136 36.4238 51.9497 37.376C51.5103 38.3037 51.2905 39.3169 51.2905 40.4155C51.2905 41.5874 51.5225 42.6006 51.9863 43.4551C52.4502 44.3096 53.085 45.0664 53.8906 45.7256C54.6963 46.3848 55.6484 46.9707 56.7471 47.4834C57.8701 47.9717 59.0786 48.4478 60.3726 48.9116C61.6665 49.3511 63.0337 49.8027 64.4741 50.2666C65.9146 50.7305 67.3672 51.231 68.832 51.7681C70.3457 52.354 71.7251 53.0254 72.9702 53.7822C74.2397 54.5146 75.3262 55.3813 76.2295 56.3823C77.1328 57.3833 77.8286 58.5308 78.3169 59.8247C78.8296 61.0942 79.0859 62.5591 79.0859 64.2192C79.0859 66.1479 78.7075 67.9424 77.9507 69.6025C77.2183 71.2627 76.1685 72.7153 74.8013 73.9604C73.4585 75.1812 71.8228 76.1455 69.894 76.8535C67.9897 77.5371 65.8657 77.8789 63.522 77.8789C60.2261 77.8789 57.3818 77.4272 54.9893 76.5239C52.6211 75.5962 50.79 74.3267 49.4961 72.7153V77H44.6621V62.0586H49.0566C49.0566 63.8164 49.2886 65.4155 49.7524 66.856C50.2163 68.2964 50.9487 69.5293 51.9497 70.5547C52.9507 71.5801 54.2324 72.3735 55.7949 72.9351C57.3818 73.4966 59.2861 73.7773 61.5078 73.7773C63.1191 73.7773 64.5962 73.5698 65.939 73.1548C67.2817 72.7397 68.4292 72.1538 69.3813 71.397C70.3579 70.6157 71.1147 69.688 71.6519 68.6138C72.189 67.5151 72.4575 66.2944 72.4575 64.9517C72.4575 63.1938 71.9814 61.7656 71.0293 60.667C70.0771 59.5439 68.8198 58.5918 67.2573 57.8105C65.6948 57.0293 63.9126 56.3335 61.9106 55.7231C59.9331 55.0884 57.9189 54.3804 55.8682 53.5991C54.0615 52.9155 52.4746 52.1831 51.1074 51.4019C49.7402 50.5962 48.5928 49.7051 47.665 48.7285C46.7617 47.752 46.0781 46.6533 45.6143 45.4326C45.1504 44.2119 44.9185 42.8325 44.9185 41.2944C44.9185 39.561 45.2603 37.9375 45.9438 36.4238C46.6274 34.9102 47.6162 33.604 48.9102 32.5054C50.2041 31.3823 51.7788 30.5034 53.6343 29.8687C55.4897 29.2095 57.5894 28.8799 59.9331 28.8799C61.1294 28.8799 62.2769 28.9409 63.3755 29.063C64.4985 29.1851 65.5728 29.4048 66.5981 29.7222C67.6479 30.0151 68.6611 30.4302 69.6377 30.9673C70.6143 31.48 71.5908 32.1514 72.5674 32.9814V29.9419C73.1533 29.9419 73.8613 29.9541 74.6914 29.9785C75.5215 29.9785 76.3271 29.9785 77.1084 29.9785V42.5396Z" fill="#212153"/>
</g>
<g filter="url(#filter3_d_191_2849)">
<path d="M28.2583 81.7474C28.8197 83.872 29.3187 85.9421 29.9425 88.2846C28.3206 88.1211 27.3849 87.2495 27.0106 86.2689C25.8878 83.3272 24.8273 80.331 24.0788 77.2803C23.6421 75.5371 25.0768 74.611 27.0106 75.1558C30.2544 76.0274 33.4359 77.0624 36.6797 78.043C36.8668 78.0975 37.1163 78.152 37.1787 78.2609C37.4906 78.6422 37.6778 79.0781 37.9273 79.5139C37.4906 79.6773 37.054 80.0586 36.6797 80.0042C35.3697 79.8407 34.1221 79.5683 32.8744 79.3504C32.1883 79.2415 31.5644 79.0781 30.5663 79.3504C31.2525 80.0042 31.9387 80.7123 32.6249 81.3661C47.4715 94.3315 69.7415 97.0553 88.2062 88.2846C90.5767 87.1406 92.76 85.7787 95.0681 84.5257C95.8791 84.0899 96.69 83.7086 97.501 83.2727C97.6881 83.3817 97.8129 83.5451 98 83.6541C97.8129 84.1444 97.7505 84.7981 97.3138 85.1249C95.9414 86.2689 94.5691 87.4129 93.0095 88.3935C77.5391 98.1993 56.0177 98.5806 39.362 89.2107C36.1806 87.4129 33.3735 85.1249 30.4416 83.0548C29.8178 82.619 29.3187 82.1287 28.7573 81.6384C28.6325 81.584 28.4454 81.6384 28.2583 81.7474Z" fill="#212153"/>
</g>
<g filter="url(#filter4_d_191_2849)">
<path d="M94.4243 22.4664C93.7461 20.3761 93.1332 18.3368 92.3807 16.0325C94.0092 16.1059 94.9917 16.9243 95.4197 17.8827C96.7037 20.7577 97.9284 23.6906 98.8447 26.6952C99.3772 28.4116 97.9959 29.4157 96.0349 28.9788C92.7479 28.2881 89.514 27.4308 86.2209 26.6313C86.031 26.5873 85.7789 26.5467 85.7106 26.4414C85.378 26.0779 85.167 25.6531 84.8938 25.2318C85.3207 25.0444 85.7356 24.6395 86.1123 24.6732C87.4294 24.7638 88.6902 24.9667 89.9479 25.1152C90.6391 25.186 91.271 25.3147 92.2525 24.9874C91.5311 24.3727 90.8068 23.7036 90.0855 23.0889C74.5438 10.9653 52.1572 9.47856 34.2064 19.2581C31.9029 20.5315 29.7983 22.0122 27.5631 23.391C26.7775 23.8711 25.989 24.2967 25.2034 24.7768C25.0105 24.6783 24.8769 24.5221 24.684 24.4236C24.8437 23.9238 24.8698 23.2676 25.2877 22.9171C26.5946 21.6988 27.9016 20.4806 29.4044 19.4152C44.3083 8.768 65.7755 7.19579 82.9244 15.6293C86.2004 17.2481 89.1299 19.3772 92.172 21.2818C92.8189 21.6824 93.3444 22.1443 93.9321 22.6028C94.0597 22.6503 94.2435 22.5855 94.4243 22.4664Z" fill="#212153"/>
</g>
<defs>
<filter id="filter0_d_191_2849" x="18" y="6" width="108" height="109" filterUnits="userSpaceOnUse" color-interpolation-filters="sRGB">
<feFlood flood-opacity="0" result="BackgroundImageFix"/>
<feColorMatrix in="SourceAlpha" type="matrix" values="0 0 0 0 0 0 0 0 0 0 0 0 0 0 0 0 0 0 127 0" result="hardAlpha"/>
<feOffset dy="4"/>
<feGaussianBlur stdDeviation="2"/>
<feComposite in2="hardAlpha" operator="out"/>
<feColorMatrix type="matrix" values="0 0 0 0 0 0 0 0 0 0 0 0 0 0 0 0 0 0 0.25 0"/>
<feBlend mode="normal" in2="BackgroundImageFix" result="effect1_dropShadow_191_2849"/>
<feBlend mode="normal" in="SourceGraphic" in2="effect1_dropShadow_191_2849" result="shape"/>
</filter>
<filter id="filter1_d_191_2849" x="7" y="4" width="108" height="108" filterUnits="userSpaceOnUse" color-interpolation-filters="sRGB">
<feFlood flood-opacity="0" result="BackgroundImageFix"/>
<feColorMatrix in="SourceAlpha" type="matrix" values="0 0 0 0 0 0 0 0 0 0 0 0 0 0 0 0 0 0 127 0" result="hardAlpha"/>
<feOffset dy="4"/>
<feGaussianBlur stdDeviation="2"/>
<feComposite in2="hardAlpha" operator="out"/>
<feColorMatrix type="matrix" values="0 0 0 0 0 0 0 0 0 0 0 0 0 0 0 0 0 0 0.25 0"/>
<feBlend mode="normal" in2="BackgroundImageFix" result="effect1_dropShadow_191_2849"/>
<feBlend mode="normal" in="SourceGraphic" in2="effect1_dropShadow_191_2849" result="shape"/>
</filter>
<filter id="filter2_d_191_2849" x="40.6621" y="28.8799" width="42.4238" height="56.999" filterUnits="userSpaceOnUse" color-interpolation-filters="sRGB">
<feFlood flood-opacity="0" result="BackgroundImageFix"/>
<feColorMatrix in="SourceAlpha" type="matrix" values="0 0 0 0 0 0 0 0 0 0 0 0 0 0 0 0 0 0 127 0" result="hardAlpha"/>
<feOffset dy="4"/>
<feGaussianBlur stdDeviation="2"/>
<feComposite in2="hardAlpha" operator="out"/>
<feColorMatrix type="matrix" values="0 0 0 0 0 0 0 0 0 0 0 0 0 0 0 0 0 0 0.25 0"/>
<feBlend mode="normal" in2="BackgroundImageFix" result="effect1_dropShadow_191_2849"/>
<feBlend mode="normal" in="SourceGraphic" in2="effect1_dropShadow_191_2849" result="shape"/>
</filter>
<filter id="filter3_d_191_2849" x="20" y="75" width="82" height="29" filterUnits="userSpaceOnUse" color-interpolation-filters="sRGB">
<feFlood flood-opacity="0" result="BackgroundImageFix"/>
<feColorMatrix in="SourceAlpha" type="matrix" values="0 0 0 0 0 0 0 0 0 0 0 0 0 0 0 0 0 0 127 0" result="hardAlpha"/>
<feOffset dy="4"/>
<feGaussianBlur stdDeviation="2"/>
<feComposite in2="hardAlpha" operator="out"/>
<feColorMatrix type="matrix" values="0 0 0 0 0 0 0 0 0 0 0 0 0 0 0 0 0 0 0.25 0"/>
<feBlend mode="normal" in2="BackgroundImageFix" result="effect1_dropShadow_191_2849"/>
<feBlend mode="normal" in="SourceGraphic" in2="effect1_dropShadow_191_2849" result="shape"/>
</filter>
<filter id="filter4_d_191_2849" x="20.684" y="10.2262" width="82.2758" height="26.8547" filterUnits="userSpaceOnUse" color-interpolation-filters="sRGB">
<feFlood flood-opacity="0" result="BackgroundImageFix"/>
<feColorMatrix in="SourceAlpha" type="matrix" values="0 0 0 0 0 0 0 0 0 0 0 0 0 0 0 0 0 0 127 0" result="hardAlpha"/>
<feOffset dy="4"/>
<feGaussianBlur stdDeviation="2"/>
<feComposite in2="hardAlpha" operator="out"/>
<feColorMatrix type="matrix" values="0 0 0 0 0 0 0 0 0 0 0 0 0 0 0 0 0 0 0.25 0"/>
<feBlend mode="normal" in2="BackgroundImageFix" result="effect1_dropShadow_191_2849"/>
<feBlend mode="normal" in="SourceGraphic" in2="effect1_dropShadow_191_2849" result="shape"/>
</filter>
</defs>
</svg>
